<?xml version="1.0" encoding="UTF-8"?>
<svg id="a" data-name="レイヤー 1" xmlns="http://www.w3.org/2000/svg" xmlns:xlink="http://www.w3.org/1999/xlink" viewBox="0 0 1104.4 470.59">
  <defs>
    <linearGradient id="b" data-name="名称未設定グラデーション 93" x1="824.35" y1="280.04" x2="750.92" y2="166.96" gradientUnits="userSpaceOnUse">
      <stop offset="0" stop-color="#333"/>
      <stop offset=".13" stop-color="#4d382e"/>
      <stop offset="1" stop-color="#ff5b11"/>
    </linearGradient>
  </defs>
  <g>
    <g>
      <path d="M392.34,153.3l-108.17-40.56c-2-2.99-5.91-4.19-9.3-2.67-3.03,1.36-4.7,4.48-4.38,7.61-.23,2.36.67,4.69,2.4,6.27l72.33,160.79-82.89-96.97c-2.69-3.15-7.43-3.52-10.57-.83-3.15,2.69-3.52,7.43-.83,10.57l116.91,136.76s.02.02.02.02c.06.07.13.14.2.21.16.17.33.34.5.5.08.07.17.15.26.22.18.15.37.28.56.41.08.05.15.1.23.15.55.34,1.14.6,1.75.79.09.03.18.05.26.07.22.06.45.11.68.15.1.02.21.04.31.05.28.04.56.06.84.06.03,0,.07,0,.1,0,.07,0,.14,0,.21-.01.16,0,.32-.01.48-.03.1,0,.19-.02.29-.04.15-.02.3-.04.45-.07.09-.02.18-.04.26-.06.17-.04.33-.08.49-.13.07-.02.14-.04.21-.07.2-.07.4-.15.6-.23.03-.01.05-.02.08-.03,0,0,.01,0,.02-.01.43-.2.85-.44,1.25-.72.11-.08.21-.16.32-.25.07-.05.14-.1.2-.16,0,0,.02-.02.03-.03.15-.13.28-.26.42-.4.04-.04.09-.08.13-.13.12-.12.23-.25.33-.39.05-.06.11-.12.16-.19.08-.1.15-.21.22-.31.07-.1.14-.2.21-.3.04-.06.07-.13.11-.19.09-.15.17-.3.25-.45.01-.03.02-.06.04-.08.09-.19.18-.38.25-.58.01-.03.02-.07.03-.1.07-.19.13-.38.19-.58.04-.14.07-.28.1-.43.02-.09.04-.18.06-.27.11-.65.14-1.32.07-1.99,0-.06,0-.11-.01-.17-.02-.13-.04-.26-.06-.4-.02-.11-.03-.23-.06-.34-.02-.09-.05-.18-.07-.26-.04-.16-.08-.31-.13-.47-.02-.06-.05-.13-.07-.19-.06-.17-.13-.35-.2-.52,0-.01,0-.03-.02-.04l-87.39-194.27,94.09,35.28c.87.33,1.76.48,2.63.48,3.04,0,5.89-1.86,7.02-4.87,1.45-3.88-.51-8.2-4.39-9.66Z" style="fill: #ff9758;"/>
      <path d="M166.41,220.59c-2.29-3.45-6.95-4.39-10.4-2.1-3.45,2.29-4.39,6.95-2.1,10.4l112.2,168.97L85.2,249.57,248.78,16.81c2.38-3.39,1.57-8.07-1.82-10.45-3.39-2.38-8.07-1.56-10.45,1.82L71.47,243.02l-60.01,8.37c-4.1.57-6.96,4.36-6.39,8.46.52,3.75,3.74,6.46,7.42,6.46.34,0,.69-.02,1.05-.07l58.41-8.15,223.3,183.03c1.39,1.13,3.07,1.7,4.75,1.7,1.8,0,3.61-.65,5.03-1.94,2.75-2.49,3.27-6.62,1.22-9.71l-139.84-210.59Z" style="fill: #ff9758;"/>
    </g>
    <path d="M398.52,149.96L251.46,3.64s-.08-.06-.11-.1c-.27-.26-.55-.51-.85-.75-.07-.05-.13-.11-.2-.17-.36-.28-.74-.54-1.13-.78-.08-.05-.17-.09-.25-.14-.31-.18-.62-.35-.94-.5-.14-.07-.28-.12-.42-.18-.28-.12-.56-.23-.85-.33-.15-.05-.29-.1-.44-.14-.31-.09-.62-.17-.93-.24-.12-.03-.25-.06-.37-.08-.43-.08-.86-.14-1.29-.18-.01,0-.03,0-.04,0-.47-.04-.94-.05-1.42-.03-.07,0-.15.01-.22.02-.38.02-.76.06-1.14.11-.05,0-.1,0-.15.01L53.94,29.56c-.1.02-.2.04-.3.06-.14.02-.27.05-.41.08-.25.05-.5.12-.74.19-.12.03-.25.07-.37.1-.34.11-.67.23-.99.36-.12.05-.24.11-.37.17-.21.1-.43.2-.63.3-.14.07-.27.15-.41.22-.19.11-.38.22-.57.34-.12.08-.24.15-.36.24-.25.17-.49.35-.72.54-.05.04-.11.08-.16.13-.27.22-.53.46-.78.7-.08.08-.16.16-.23.24-.18.19-.36.38-.52.58-.08.09-.15.18-.23.27-.17.21-.34.44-.49.66-.05.08-.11.15-.16.23-.2.3-.39.61-.57.93-.04.07-.07.15-.11.22-.13.25-.25.49-.36.75-.06.13-.11.27-.17.4-.08.2-.16.41-.23.61-.05.15-.1.31-.15.46-.06.21-.12.42-.17.64-.04.15-.08.29-.11.44,0,0,0,.02,0,.03L.24,256.37c-.49,2.44-.24,4.97.72,7.26l83,199.06s.02.06.04.08l.05.12c.07.18.16.34.24.51.11.23.22.46.34.68.1.19.21.38.32.56.08.13.16.25.24.37.12.17.24.35.36.52.08.11.17.22.25.33.14.18.29.35.44.52.08.09.15.18.23.26.2.22.42.43.64.63.03.03.07.07.1.1.26.23.53.45.8.66.08.06.16.11.24.17.2.14.4.28.61.42.11.07.22.14.33.2.19.11.38.22.57.32.12.06.24.13.36.19.21.1.43.2.64.29.1.04.21.09.31.13.3.12.62.22.93.32.13.04.27.07.4.11.21.05.41.11.62.15.14.03.29.06.43.08.22.04.44.07.66.09.13.02.26.03.39.04.34.03.68.05,1.03.05.01,0,.02,0,.03,0,0,0,0,0,0,0,0,0,0,0,0,0,.01,0,.02,0,.04,0,.38,0,.77-.02,1.16-.06.05,0,.1-.02.15-.02.05,0,.09,0,.13,0l204.41-24.26c3.52-.42,6.7-2.31,8.75-5.22l73.53-104.41s0,0,0,0c.28-.4.53-.82.77-1.26.04-.07.07-.13.11-.2.03-.05.06-.11.09-.16.2-.4.37-.81.53-1.21.02-.04.03-.09.04-.14.15-.43.28-.86.39-1.3.03-.12.05-.24.08-.36.08-.39.14-.78.19-1.17,0-.07.03-.14.03-.21l16.18-170.59c.35-3.72-.98-7.4-3.63-10.04ZM362.8,310.11l-169.41-84.31,73.43-23.28,24.2-85.95-19.51-57.72,105.19,104.67-13.9,146.59ZM69.44,52.43l164.74-25.94,30.68,90.76-18.45,65.52-159.7,50.64-17.27-180.98ZM51.5,127.57l11.8,123.68s0,.06,0,.08l11.98,125.59-49.78-119.39,25.99-129.96ZM292.99,422.07l-186.17,22.1-17.68-185.3,69.98-22.19,195.81,97.44-61.94,87.95Z" style="fill: #ff5b11; isolation: isolate; opacity: .99;"/>
  </g>
  <g style="isolation: isolate; opacity: .99;">
    <g>
      <path d="M560.9,244.56c-4.81-3.85-7.69-9.3-7.69-15.39,0-10.58,8.65-19.55,19.55-19.55h51.93c14.1,0,24.68-10.58,24.68-24.04s-10.58-24.04-24.68-24.04h-91.03v142.96c0,12.18-9.94,22.12-22.12,22.12s-22.12-9.94-22.12-22.12v-167.64c0-9.62,8.01-17.63,17.63-17.63h122.45c35.26,0,64.11,28.85,64.11,65.07s-25.96,61.22-58.34,64.11l163.56,127.47c9.94,7.69,11.86,20.83,4.17,30.77-7.05,9.3-21.16,11.54-30.77,3.85l-211.32-165.94Z" style="fill: url(#b);"/>
      <path d="M786.56,323.09c-46.8,0-79.5-33.98-79.5-79.17v-11.54c0-45.2,32.7-79.17,79.5-79.17h42.31c46.8,0,79.49,33.98,79.49,79.17v11.54c0,45.2-32.7,79.17-79.49,79.17h-42.31ZM865.41,232.38c0-21.48-15.07-37.5-36.54-37.5h-42.31c-21.48,0-36.54,16.03-36.54,37.5v11.54c0,21.48,15.07,37.5,36.54,37.5h42.31c21.48,0,36.54-16.03,36.54-37.5v-11.54Z" style="fill: url(#b);"/>
      <path d="M1009.98,266.68l-58.66,54.17c-8.65,8.01-22.12,7.69-30.13-.96-8.01-8.66-7.37-22.12,1.28-30.13l57.06-51.61-164.72-145.84c-8.65-8.01-9.62-21.48-1.6-30.13,8.01-8.65,21.48-8.98,30.13-.96l166.64,148.4,58.66-54.17c8.65-8.01,22.12-7.69,30.13.96,8.01,8.65,7.05,22.12-1.6,30.13l-57.06,51.61,57.38,51.61c8.65,8.01,9.3,21.48,1.28,30.13-8.01,8.65-21.48,8.97-30.13.96l-58.66-54.17Z" style="fill: url(#b);"/>
    </g>
  </g>
</svg>